<?xml version="1.0" encoding="utf-8"?>
<!-- Generator: Adobe Illustrator 16.0.0, SVG Export Plug-In . SVG Version: 6.00 Build 0)  -->
<!DOCTYPE svg PUBLIC "-//W3C//DTD SVG 1.1//EN" "http://www.w3.org/Graphics/SVG/1.1/DTD/svg11.dtd">
<svg version="1.1" xmlns="http://www.w3.org/2000/svg" xmlns:xlink="http://www.w3.org/1999/xlink" x="0px" y="0px"
	 width="450.992px" height="423.801px" viewBox="0 0 450.992 423.801" enable-background="new 0 0 450.992 423.801"
	 xml:space="preserve">
<g id="Capa_1">
	<g>
		<g>
			<path fill="#2C2C2C" d="M241.954,146.189h29.627l-14.813-59.684L241.954,146.189z M171.436,340.604
				c0,17.223-0.683,28.445-2.045,33.669c-1.364,5.223-3.808,9.105-7.334,11.646s-8.723,3.812-15.585,3.812
				c-5.831,0-12.037-0.894-18.618-2.683v26.399c9.873,2.351,18.382,3.528,25.529,3.528c13.915,0,24.587-2.918,32.016-8.752
				c7.427-5.835,12.271-13.599,14.527-23.293c2.256-9.692,3.385-24.469,3.385-44.327V220.751h-31.875V340.604z M228.237,200.555
				h57.061l-8.778-34.654h-39.503L228.237,200.555z M345.649,200.555h49.928L345.649,91.98V200.555z M450.828,199.277
				c-3.801-33.039-14.783-63.904-31.353-91.01c-0.968-1.581-1.952-3.146-1.952-3.146l1.098,95.433h32.371L450.828,199.277z
				 M397.619,78.347C356.144,30.375,294.711,0,226.155,0C157.844,0,96.606,30.157,55.138,77.831
				c0,9.448,0.273,102.307,0.273,102.307h48.83v20.259h-72.91c0,0,0.356-90.234,0-89.635C11.424,144.295,0,183.414,0,225.188
				c1.006,133.206,108.298,196.923,120.152,198.612c1.129-3.943,0-363.579,0-363.579h80.652v20.26h-56.511v38.329h43.893v19.712
				h-43.893v42.162h57.609v19.87h3.841L245.245,60.77h26.885l37.857,139.785h15.363V60.77h28.529l43.893,96.918
				C397.772,157.688,397.612,78.688,397.619,78.347z M332.436,314.064c-7.052-4.518-17.114-9.269-30.183-14.258
				c-15.326-5.835-25.553-10.853-30.676-15.053c-5.126-4.199-7.688-9.84-7.688-16.92c0-6.419,2.279-12.105,6.841-17.062
				c4.561-4.954,11.023-7.434,19.394-7.434c9.026,0,16.149,2.436,21.368,7.305c5.218,4.871,9.425,12.41,12.623,22.623l27.221-9.458
				c-8.652-31.058-28.632-46.587-59.942-46.587c-17.679,0-31.854,5.224-42.524,15.671c-10.673,10.446-16.009,23.341-16.009,38.68
				c0,10.071,2.398,19.059,7.193,26.963c4.796,7.906,10.601,13.884,17.419,17.929c6.815,4.048,17.935,8.989,33.356,14.823
				c14.573,5.555,23.694,10.777,27.361,15.67c3.667,4.895,5.501,10.213,5.501,15.952c0,7.813-2.657,14.377-7.969,19.692
				c-5.313,5.318-13.095,7.977-23.343,7.977c-20.968,0-33.943-11.858-38.927-35.575l-28.49,8.047
				c8.463,35.952,30.465,53.927,66.007,53.927c20.593,0,36.601-5.693,48.024-17.081c11.425-11.387,17.137-25.175,17.137-41.363
				c0-9.974-2.186-18.751-6.559-26.327C345.201,324.63,339.489,318.582,332.436,314.064z"/>
		</g>
	</g>
</g>
<g id="Capa_2" display="none">
	<g display="inline">
		<g>
			<path fill="#2A9C99" d="M-53.732-209.1c-10.367,0-18.772,8.434-18.772,18.837s8.405,18.838,18.772,18.838
				c10.368,0,18.772-8.434,18.772-18.838S-43.364-209.1-53.732-209.1z M-72.542-88.83h36.105v-36.225h-36.105V-88.83z M46.875-209.1
				H10.77v36.225h36.105V-209.1z M69.833-130.853l17.473-10.228l-0.097-20.286l-17.569-10.059l-17.473,10.227l0.097,20.286
				L69.833-130.853z M-13.443-130.853L4.03-141.081l-0.096-20.286l-17.569-10.059l-17.473,10.227l0.096,20.286L-13.443-130.853z
				 M-13.635-85.931l-17.473,10.227l0.096,20.286l17.569,10.059L4.03-55.586L3.934-75.873L-13.635-85.931z M69.639-86.448
				L52.167-76.221l0.097,20.286l17.569,10.059l17.473-10.228l-0.097-20.285L69.639-86.448z M11.71-101.385
				c0,4.248-0.166,7.016-0.496,8.304c-0.331,1.288-0.924,2.246-1.778,2.873c-0.855,0.626-2.115,0.94-3.78,0.94
				c-1.414,0-2.919-0.22-4.515-0.662v6.511c2.395,0.58,4.458,0.871,6.191,0.871c3.374,0,5.962-0.72,7.764-2.159
				c1.801-1.439,2.976-3.354,3.523-5.745c0.547-2.39,0.82-6.035,0.82-10.933v-29.561H11.71V-101.385z M56.5-96.963
				c0-2.46-0.529-4.625-1.59-6.494c-1.061-1.868-2.445-3.36-4.156-4.474c-1.71-1.114-4.15-2.286-7.319-3.517
				c-3.717-1.439-6.196-2.676-7.439-3.712c-1.243-1.036-1.864-2.427-1.864-4.173c0-1.583,0.553-2.985,1.659-4.208
				c1.105-1.222,2.673-1.833,4.703-1.833c2.188,0,3.916,0.601,5.182,1.802s2.286,3.061,3.062,5.58l6.602-2.333
				c-2.099-7.66-6.943-11.49-14.537-11.49c-4.287,0-7.725,1.288-10.313,3.865s-3.882,5.757-3.882,9.54c0,2.484,0.581,4.7,1.744,6.65
				c1.163,1.95,2.57,3.424,4.225,4.422c1.652,0.998,4.349,2.217,8.089,3.656c3.534,1.37,5.746,2.658,6.636,3.865
				c0.889,1.207,1.334,2.519,1.334,3.934c0,1.927-0.645,3.546-1.933,4.857c-1.289,1.312-3.176,1.967-5.661,1.967
				c-5.085,0-8.231-2.925-9.44-8.774l-6.909,1.985c2.053,8.867,7.389,13.3,16.008,13.3c4.994,0,8.876-1.404,11.646-4.213
				C55.116-89.57,56.5-92.971,56.5-96.963z"/>
		</g>
	</g>
</g>
</svg>
